<svg version="1.2" xmlns="http://www.w3.org/2000/svg" viewBox="0 0 13 10" width="13" height="10">
	<title>client reviews</title>
	<style>
		.s0 { fill: #fbd243 } 
	</style>
	<g id="client reviews">
		<g id="review 1">
			<path id="Shape 1" fill-rule="evenodd" class="s0" d="m12.6 1.4h-0.9v-0.9c0-0.2-0.2-0.4-0.4-0.5-0.1 0-0.9-0.1-2 0.1-1.2 0.2-2.2 0.7-2.8 1.5-0.6-0.8-1.6-1.3-2.8-1.5-1.1-0.2-1.9-0.1-2-0.1-0.2 0.1-0.4 0.3-0.4 0.5v0.9h-0.9c-0.2 0-0.4 0.1-0.4 0.4v7.8q0 0.2 0.2 0.3 0.2 0.1 0.4 0.1c0 0 3.3-1.1 5.7 0q0.2 0 0.4 0c2.4-1.1 5.7 0 5.7 0q0.1 0 0.2 0 0.1 0 0.2-0.1 0.2-0.1 0.2-0.3v-7.8c0-0.3-0.2-0.4-0.4-0.4zm-11.7 7.6v-6.8h0.4v5.5q0.1 0.2 0.2 0.3 0.2 0.1 0.3 0.1c0.1 0 2-0.2 3.4 0.7-1.8-0.3-3.5 0-4.3 0.2zm5.2-0.6q-1-0.8-2.4-1-0.7-0.2-1.2-0.1-0.2 0-0.3 0v-6.5c0.9 0 2.9 0.1 3.9 1.6zm0.8-5.9c1-1.6 3-1.6 3.9-1.6v6.4c-0.4 0-0.9 0-1.5 0.1q-1.4 0.3-2.4 1v-5.9zm0.9 6.3c1.4-0.9 3.3-0.6 3.4-0.6q0.1 0 0.3-0.1 0.1-0.2 0.2-0.3v-5.6h0.4v6.9c-0.8-0.2-2.5-0.6-4.3-0.3z"/>
		</g>
	</g>
</svg>