<svg version="1.2" xmlns="http://www.w3.org/2000/svg" viewBox="0 0 83 14" width="83" height="14">
	<title>client reviews</title>
	<style>
		.s0 { fill: #d89108 } 
	</style>
	<g id="client reviews">
		<g id="review 1">
			<path id="favourite / star" class="s0" d="m13.7 5l-3.4 3.4 0.9 4.8-4.1-2.5-4.1 2.5 0.9-4.8-3.4-3.4 4.6-0.4 2-4.5 2.1 4.5zm17.2 0l-3.4 3.4 0.9 4.8-4.1-2.5-4.1 2.5 1-4.8-3.4-3.4 4.5-0.4 2-4.6 2.1 4.6zm17.2 0l-3.4 3.4 0.9 4.8-4.1-2.5-4.1 2.5 1-4.8-3.4-3.4 4.5-0.5 2-4.5 2.1 4.5zm17.2 0l-3.4 3.5 1 4.7-4.2-2.4-4 2.4 0.9-4.7-3.4-3.5 4.5-0.4 2.1-4.5 2 4.5zm17.2 0l-3.4 3.4 1 4.8-4.1-2.5-4.1 2.5 0.9-4.7-3.4-3.5 4.5-0.4 2.1-4.5 2 4.5z"/>
		</g>
	</g>
</svg>